<svg width="85" height="101" viewBox="0 0 85 101" fill="none" xmlns="http://www.w3.org/2000/svg">
<rect width="85" height="101" rx="8" fill="#F3F3F4"/>
<path d="M46.75 52.4375H39.25C32.4625 52.4375 29.5625 49.5375 29.5625 42.75V35.25C29.5625 28.4625 32.4625 25.5625 39.25 25.5625H46.75C53.5375 25.5625 56.4375 28.4625 56.4375 35.25V42.75C56.4375 49.5375 53.5375 52.4375 46.75 52.4375ZM39.25 27.4375C33.4875 27.4375 31.4375 29.4875 31.4375 35.25V42.75C31.4375 48.5125 33.4875 50.5625 39.25 50.5625H46.75C52.5125 50.5625 54.5625 48.5125 54.5625 42.75V35.25C54.5625 29.4875 52.5125 27.4375 46.75 27.4375H39.25Z" fill="#0D091D"/>
<path d="M36.7499 36.0374C36.4124 36.0374 36.0749 35.8499 35.9124 35.5249C35.6749 35.0624 35.8624 34.4999 36.3249 34.2624C40.4999 32.1749 45.4874 32.1749 49.6624 34.2624C50.1249 34.4999 50.3124 35.0624 50.0874 35.5249C49.8499 35.9874 49.2999 36.1749 48.8249 35.9499C45.1749 34.1249 40.8124 34.1249 37.1624 35.9499C37.0374 36.0124 36.8874 36.0374 36.7499 36.0374Z" fill="#0D091D"/>
<path d="M43 45.3001C42.4875 45.3001 42.0625 44.8751 42.0625 44.3626V33.9126C42.0625 33.4001 42.4875 32.9751 43 32.9751C43.5125 32.9751 43.9375 33.4001 43.9375 33.9126V44.3751C43.9375 44.8876 43.5125 45.3001 43 45.3001Z" fill="#0D091D"/>
<path d="M36.528 65.624V66.98H34.296V74H32.616V66.98H30.384V65.624H36.528ZM43.9338 70.532C43.9338 70.772 43.9178 70.988 43.8858 71.18H39.0258C39.0658 71.66 39.2338 72.036 39.5298 72.308C39.8258 72.58 40.1898 72.716 40.6218 72.716C41.2458 72.716 41.6898 72.448 41.9538 71.912H43.7658C43.5738 72.552 43.2058 73.08 42.6618 73.496C42.1178 73.904 41.4498 74.108 40.6578 74.108C40.0178 74.108 39.4418 73.968 38.9298 73.688C38.4258 73.4 38.0298 72.996 37.7418 72.476C37.4618 71.956 37.3218 71.356 37.3218 70.676C37.3218 69.988 37.4618 69.384 37.7418 68.864C38.0218 68.344 38.4138 67.944 38.9178 67.664C39.4218 67.384 40.0018 67.244 40.6578 67.244C41.2898 67.244 41.8538 67.38 42.3498 67.652C42.8538 67.924 43.2418 68.312 43.5138 68.816C43.7938 69.312 43.9338 69.884 43.9338 70.532ZM42.1938 70.052C42.1858 69.62 42.0298 69.276 41.7258 69.02C41.4218 68.756 41.0498 68.624 40.6098 68.624C40.1938 68.624 39.8418 68.752 39.5538 69.008C39.2738 69.256 39.1018 69.604 39.0378 70.052H42.1938ZM48.832 74L47.464 71.936L46.252 74H44.452L46.624 70.664L44.428 67.352H46.324L47.68 69.404L48.904 67.352H50.704L48.52 70.664L50.728 74H48.832ZM53.5965 68.732V71.948C53.5965 72.172 53.6485 72.336 53.7525 72.44C53.8645 72.536 54.0485 72.584 54.3045 72.584H55.0845V74H54.0285C52.6125 74 51.9045 73.312 51.9045 71.936V68.732H51.1125V67.352H51.9045V65.708H53.5965V67.352H55.0845V68.732H53.5965Z" fill="#0D091D"/>
</svg>
