<svg width="86" height="101" viewBox="0 0 86 101" fill="none" xmlns="http://www.w3.org/2000/svg">
<rect width="86" height="101" rx="8" fill="#F3F3F4"/>
<path d="M50.05 52.4375H36.95C33.45 52.4375 31.225 50.35 31.025 46.8625L30.375 36.55C30.275 34.9875 30.8125 33.4875 31.8875 32.35C32.95 31.2125 34.45 30.5625 36 30.5625C36.4 30.5625 36.7875 30.325 36.975 29.95L37.875 28.1625C38.6125 26.7 40.4625 25.5625 42.075 25.5625H44.9375C46.55 25.5625 48.3875 26.7 49.125 28.15L50.025 29.975C50.2125 30.325 50.5875 30.5625 51 30.5625C52.55 30.5625 54.05 31.2125 55.1125 32.35C56.1875 33.5 56.725 34.9875 56.625 36.55L55.975 46.875C55.75 50.4125 53.5875 52.4375 50.05 52.4375ZM42.075 27.4375C41.15 27.4375 39.975 28.1625 39.55 29L38.65 30.8C38.125 31.8125 37.1125 32.4375 36 32.4375C34.95 32.4375 33.975 32.8625 33.25 33.625C32.5375 34.3875 32.175 35.3875 32.25 36.425L32.9 46.75C33.05 49.275 34.4125 50.5625 36.95 50.5625H50.05C52.575 50.5625 53.9375 49.275 54.1 46.75L54.75 36.425C54.8125 35.3875 54.4625 34.3875 53.75 33.625C53.025 32.8625 52.05 32.4375 51 32.4375C49.8875 32.4375 48.875 31.8125 48.35 30.825L47.4375 29C47.025 28.175 45.85 27.45 44.925 27.45H42.075V27.4375Z" fill="#0D091D"/>
<path d="M45.375 34.9375H41.625C41.1125 34.9375 40.6875 34.5125 40.6875 34C40.6875 33.4875 41.1125 33.0625 41.625 33.0625H45.375C45.8875 33.0625 46.3125 33.4875 46.3125 34C46.3125 34.5125 45.8875 34.9375 45.375 34.9375Z" fill="#0D091D"/>
<path d="M43.5 47.4375C40.7375 47.4375 38.5 45.2 38.5 42.4375C38.5 39.675 40.7375 37.4375 43.5 37.4375C46.2625 37.4375 48.5 39.675 48.5 42.4375C48.5 45.2 46.2625 47.4375 43.5 47.4375ZM43.5 39.3125C41.775 39.3125 40.375 40.7125 40.375 42.4375C40.375 44.1625 41.775 45.5625 43.5 45.5625C45.225 45.5625 46.625 44.1625 46.625 42.4375C46.625 40.7125 45.225 39.3125 43.5 39.3125Z" fill="#0D091D"/>
<path d="M18.42 69.8C18.42 68.976 18.604 68.24 18.972 67.592C19.348 66.936 19.856 66.428 20.496 66.068C21.144 65.7 21.868 65.516 22.668 65.516C23.604 65.516 24.424 65.756 25.128 66.236C25.832 66.716 26.324 67.38 26.604 68.228H24.672C24.48 67.828 24.208 67.528 23.856 67.328C23.512 67.128 23.112 67.028 22.656 67.028C22.168 67.028 21.732 67.144 21.348 67.376C20.972 67.6 20.676 67.92 20.46 68.336C20.252 68.752 20.148 69.24 20.148 69.8C20.148 70.352 20.252 70.84 20.46 71.264C20.676 71.68 20.972 72.004 21.348 72.236C21.732 72.46 22.168 72.572 22.656 72.572C23.112 72.572 23.512 72.472 23.856 72.272C24.208 72.064 24.48 71.76 24.672 71.36H26.604C26.324 72.216 25.832 72.884 25.128 73.364C24.432 73.836 23.612 74.072 22.668 74.072C21.868 74.072 21.144 73.892 20.496 73.532C19.856 73.164 19.348 72.656 18.972 72.008C18.604 71.36 18.42 70.624 18.42 69.8ZM27.6069 70.652C27.6069 69.98 27.7389 69.384 28.0029 68.864C28.2749 68.344 28.6389 67.944 29.0949 67.664C29.5589 67.384 30.0749 67.244 30.6429 67.244C31.1389 67.244 31.5709 67.344 31.9389 67.544C32.3149 67.744 32.6149 67.996 32.8389 68.3V67.352H34.5309V74H32.8389V73.028C32.6229 73.34 32.3229 73.6 31.9389 73.808C31.5629 74.008 31.1269 74.108 30.6309 74.108C30.0709 74.108 29.5589 73.964 29.0949 73.676C28.6389 73.388 28.2749 72.984 28.0029 72.464C27.7389 71.936 27.6069 71.332 27.6069 70.652ZM32.8389 70.676C32.8389 70.268 32.7589 69.92 32.5989 69.632C32.4389 69.336 32.2229 69.112 31.9509 68.96C31.6789 68.8 31.3869 68.72 31.0749 68.72C30.7629 68.72 30.4749 68.796 30.2109 68.948C29.9469 69.1 29.7309 69.324 29.5629 69.62C29.4029 69.908 29.3229 70.252 29.3229 70.652C29.3229 71.052 29.4029 71.404 29.5629 71.708C29.7309 72.004 29.9469 72.232 30.2109 72.392C30.4829 72.552 30.7709 72.632 31.0749 72.632C31.3869 72.632 31.6789 72.556 31.9509 72.404C32.2229 72.244 32.4389 72.02 32.5989 71.732C32.7589 71.436 32.8389 71.084 32.8389 70.676ZM44.4278 67.256C45.2438 67.256 45.8998 67.508 46.3958 68.012C46.8998 68.508 47.1518 69.204 47.1518 70.1V74H45.4718V70.328C45.4718 69.808 45.3398 69.412 45.0758 69.14C44.8118 68.86 44.4518 68.72 43.9958 68.72C43.5398 68.72 43.1758 68.86 42.9038 69.14C42.6398 69.412 42.5078 69.808 42.5078 70.328V74H40.8278V70.328C40.8278 69.808 40.6958 69.412 40.4318 69.14C40.1678 68.86 39.8078 68.72 39.3518 68.72C38.8878 68.72 38.5198 68.86 38.2478 69.14C37.9838 69.412 37.8518 69.808 37.8518 70.328V74H36.1718V67.352H37.8518V68.156C38.0678 67.876 38.3438 67.656 38.6798 67.496C39.0238 67.336 39.3998 67.256 39.8078 67.256C40.3278 67.256 40.7918 67.368 41.1998 67.592C41.6078 67.808 41.9238 68.12 42.1478 68.528C42.3638 68.144 42.6758 67.836 43.0838 67.604C43.4998 67.372 43.9478 67.256 44.4278 67.256ZM54.926 70.532C54.926 70.772 54.91 70.988 54.878 71.18H50.018C50.058 71.66 50.226 72.036 50.522 72.308C50.818 72.58 51.182 72.716 51.614 72.716C52.238 72.716 52.682 72.448 52.946 71.912H54.758C54.566 72.552 54.198 73.08 53.654 73.496C53.11 73.904 52.442 74.108 51.65 74.108C51.01 74.108 50.434 73.968 49.922 73.688C49.418 73.4 49.022 72.996 48.734 72.476C48.454 71.956 48.314 71.356 48.314 70.676C48.314 69.988 48.454 69.384 48.734 68.864C49.014 68.344 49.406 67.944 49.91 67.664C50.414 67.384 50.994 67.244 51.65 67.244C52.282 67.244 52.846 67.38 53.342 67.652C53.846 67.924 54.234 68.312 54.506 68.816C54.786 69.312 54.926 69.884 54.926 70.532ZM53.186 70.052C53.178 69.62 53.022 69.276 52.718 69.02C52.414 68.756 52.042 68.624 51.602 68.624C51.186 68.624 50.834 68.752 50.546 69.008C50.266 69.256 50.094 69.604 50.03 70.052H53.186ZM57.8322 68.384C58.0482 68.032 58.3282 67.756 58.6722 67.556C59.0242 67.356 59.4242 67.256 59.8722 67.256V69.02H59.4282C58.9002 69.02 58.5002 69.144 58.2282 69.392C57.9642 69.64 57.8322 70.072 57.8322 70.688V74H56.1522V67.352H57.8322V68.384ZM60.5718 70.652C60.5718 69.98 60.7038 69.384 60.9678 68.864C61.2398 68.344 61.6038 67.944 62.0598 67.664C62.5238 67.384 63.0398 67.244 63.6078 67.244C64.1038 67.244 64.5358 67.344 64.9038 67.544C65.2798 67.744 65.5798 67.996 65.8038 68.3V67.352H67.4958V74H65.8038V73.028C65.5878 73.34 65.2878 73.6 64.9038 73.808C64.5278 74.008 64.0918 74.108 63.5958 74.108C63.0358 74.108 62.5238 73.964 62.0598 73.676C61.6038 73.388 61.2398 72.984 60.9678 72.464C60.7038 71.936 60.5718 71.332 60.5718 70.652ZM65.8038 70.676C65.8038 70.268 65.7238 69.92 65.5638 69.632C65.4038 69.336 65.1878 69.112 64.9158 68.96C64.6438 68.8 64.3518 68.72 64.0398 68.72C63.7278 68.72 63.4398 68.796 63.1758 68.948C62.9118 69.1 62.6958 69.324 62.5278 69.62C62.3678 69.908 62.2878 70.252 62.2878 70.652C62.2878 71.052 62.3678 71.404 62.5278 71.708C62.6958 72.004 62.9118 72.232 63.1758 72.392C63.4478 72.552 63.7358 72.632 64.0398 72.632C64.3518 72.632 64.6438 72.556 64.9158 72.404C65.1878 72.244 65.4038 72.02 65.5638 71.732C65.7238 71.436 65.8038 71.084 65.8038 70.676Z" fill="#0D091D"/>
</svg>
